<?xml version="1.0" standalone="yes"?>
<svg xmlns="http://www.w3.org/2000/svg" width="500" height="350">
<path style="fill:#010101; stroke:none;" d="M0 0L0 408L612 408L612 0L0 0z"/>
<path style="fill:#e6cede; stroke:none;" d="M305 118L305 119L309 119L305 118M312 119L317 121L317 120L314 118L312 119M288 128L302 120C296.661 118.263 290.546 123.603 288 128z"/>
<path style="fill:#6ac4af; stroke:none;" d="M302 119L303 120L302 119z"/>
<path style="fill:#7a4f8b; stroke:none;" d="M303 119L303 120L306 120L303 119z"/>
<path style="fill:#010101; stroke:none;" d="M284 185L283 185L283 183L282 183C283.531 190.342 289.718 189.495 292 183L291 183L285 188L285 187C291.024 185.001 289 176.251 289 171C289 157.562 285.948 141.052 295 130C290.069 139.423 291 148.596 291 159L324 159C324 149.011 324.616 140.133 320 131C331.989 145.968 320.903 169.757 326 187L324 182L323 182C323.623 190.172 331.377 190.172 332 182L331 182L331 186C325.983 169.027 336.093 146.89 327.034 131.004C318.228 115.562 294.846 116.145 286.839 132C279.686 146.164 284 169.482 284 185z"/>
<path style="fill:#7a4f8b; stroke:none;" d="M308 119L308 120L311 120L308 119z"/>
<path style="fill:#6ac4af; stroke:none;" d="M311 119L312 120L311 119z"/>
<path style="fill:#7a4f8b; stroke:none;" d="M299 120L300 121L299 120M314 120L315 121L314 120M297 121L298 122L297 121M316 121L317 122L316 121z"/>
<path style="fill:#6ac4af; stroke:none;" d="M317 121L318 122L317 121z"/>
<path style="fill:#e6cede; stroke:none;" d="M318 121L319 122L318 121z"/>
<path style="fill:#7a4f8b; stroke:none;" d="M295 122L296 123L295 122M318 122L319 123L318 122z"/>
<path style="fill:#6ac4af; stroke:none;" d="M319 122L320 123L319 122z"/>
<path style="fill:#e6cede; stroke:none;" d="M320 122L323 125L320 122z"/>
<path style="fill:#6ac4af; stroke:none;" d="M293 123L294 124L293 123z"/>
<path style="fill:#7a4f8b; stroke:none;" d="M320 123L321 124L320 123M292 124L293 125L292 124M321 124L322 125L321 124M291 125L292 126L291 125M301.667 125.333L302.333 125.667L301.667 125.333z"/>
<path style="fill:#6ac4af; stroke:none;" d="M303 125L304 126L303 125z"/>
<path style="fill:#e6cede; stroke:none;" d="M304 125L304 126L311 126L304 125z"/>
<path style="fill:#7a4f8b; stroke:none;" d="M311.667 125.333L312.333 125.667L311.667 125.333z"/>
<path style="fill:#e6cede; stroke:none;" d="M323 125L324 126L323 125z"/>
<path style="fill:#7a4f8b; stroke:none;" d="M290 126L291 127L290 126M299 126L300 127L299 126z"/>
<path style="fill:#e6cede; stroke:none;" d="M300.667 126.333L301.333 126.667L300.667 126.333M312 126L312 127L317 129L317 128L312 126z"/>
<path style="fill:#7a4f8b; stroke:none;" d="M314 126L315 127L314 126z"/>
<path style="fill:#e6cede; stroke:none;" d="M324 126L328 133L329 133L324 126z"/>
<path style="fill:#7a4f8b; stroke:none;" d="M289 127L290 128L289 127M297 127L296 129L297 127z"/>
<path style="fill:#e6cede; stroke:none;" d="M298.667 127.333L299.333 127.667L298.667 127.333z"/>
<path style="fill:#7a4f8b; stroke:none;" d="M316 127L317 128L316 127M324 127L325 128L324 127M288 128L289 129L288 128z"/>
<path style="fill:#e6cede; stroke:none;" d="M297 128L298 129L297 128z"/>
<path style="fill:#6ac4af; stroke:none;" d="M317 128L318 129L317 128z"/>
<path style="fill:#7a4f8b; stroke:none;" d="M325 128L326 129L325 128z"/>
<path style="fill:#e6cede; stroke:none;" d="M287 129L285 130L285 131L287 129z"/>
<path style="fill:#6ac4af; stroke:none;" d="M295 129L296 130L295 129z"/>
<path style="fill:#e6cede; stroke:none;" d="M296 129L297 130L296 129M318 129L319 130L318 129z"/>
<path style="fill:#6ac4af; stroke:none;" d="M326 129L327 130L326 129z"/>
<path style="fill:#7a4f8b; stroke:none;" d="M287 130L288 131L287 130z"/>
<path style="fill:#6ac4af; stroke:none;" d="M294 130L295 131L294 130z"/>
<path style="fill:#e6cede; stroke:none;" d="M319 130L320 131L319 130z"/>
<path style="fill:#6ac4af; stroke:none;" d="M286 131L287 132L286 131z"/>
<path style="fill:#7a4f8b; stroke:none;" d="M293 131L292 133L293 131z"/>
<path style="fill:#e6cede; stroke:none;" d="M294 131L295 132L294 131z"/>
<path style="fill:#6ac4af; stroke:none;" d="M320 131L321 132L320 131z"/>
<path style="fill:#7a4f8b; stroke:none;" d="M327 131L328 132L327 131z"/>
<path style="fill:#e6cede; stroke:none;" d="M284.667 132.333L285.333 132.667L284.667 132.333z"/>
<path style="fill:#7a4f8b; stroke:none;" d="M286 132L287 133L286 132z"/>
<path style="fill:#e6cede; stroke:none;" d="M293 132L294 133L293 132M320 132L322 134L320 132z"/>
<path style="fill:#7a4f8b; stroke:none;" d="M321 132L322 133L321 132z"/>
<path style="fill:#6ac4af; stroke:none;" d="M285 133L286 134L285 133z"/>
<path style="fill:#e6cede; stroke:none;" d="M292 133L291 137L292 137L292 133z"/>
<path style="fill:#7a4f8b; stroke:none;" d="M322 133L323 134L322 133M328 133L329 134L328 133z"/>
<path style="fill:#e6cede; stroke:none;" d="M284 134L283 159L266.564 160.028L263.718 170L261 195L262 195L266 160L284 160L284 134z"/>
<path style="fill:#7a4f8b; stroke:none;" d="M285 134L286 135L285 134M291 134L292 135L291 134z"/>
<path style="fill:#6ac4af; stroke:none;" d="M322 134L323 135L322 134z"/>
<path style="fill:#e6cede; stroke:none;" d="M329 134L330 135L329 134M322 135L323 136L322 135z"/>
<path style="fill:#7a4f8b; stroke:none;" d="M323.333 135.667L323.667 136.333L323.333 135.667z"/>
<path style="fill:#6ac4af; stroke:none;" d="M329 135L330 136L329 135z"/>
<path style="fill:#7a4f8b; stroke:none;" d="M290 136L291 137L290 136M329.333 136.667L329.667 137.333L329.333 136.667M284 137L284 140L285 140L284 137z"/>
<path style="fill:#6ac4af; stroke:none;" d="M290 137L291 138L290 137z"/>
<path style="fill:#e6cede; stroke:none;" d="M323 137L323 140L324 140L323 137M330 137L330 141L331 141L330 137M290 138L290 160L324 160L324 159L291 159L290 138z"/>
<path style="fill:#7a4f8b; stroke:none;" d="M324 139L324 184L325 184C325 171.258 328.91 150.701 324 139M289 140L288 187L289 187L290 155L289 140z"/>
<path style="fill:#6ac4af; stroke:none;" d="M330 141L330 160L331 160L330 141z"/>
<path style="fill:#e6cede; stroke:none;" d="M331 159L331 160L348 160L355 209L356 209L349 159L331 159z"/>
<path style="fill:#d0427d; stroke:none;" d="M266 160L256.282 234L249 288L285 288L367 288L360.272 240L348 160L331 160C329.777 167.333 334.341 180.017 331.843 185.941C329.896 190.554 323.372 190.031 322.643 184.956C321.6 177.694 324 167.681 324 160L290 160L291.593 183.995L286.996 189.364L282.157 184.981L284 160L266 160z"/>
<path style="fill:#7a4f8b; stroke:none;" d="M330 160L330 163L331 163L330 160M330 165L331 166L330 165M330 170L330 176L331 176L330 170M330 178L330 181L331 181L330 178z"/>
<path style="fill:#e6cede; stroke:none;" d="M283 180L283 185L284 185L283 180M290 180L290 185L291 185L290 180M323.333 180.667L323.667 181.333L323.333 180.667M330.667 181.333L331.333 181.667L330.667 181.333M322 182L322 187L323 187L322 182z"/>
<path style="fill:#6ac4af; stroke:none;" d="M330 182L330 185L331 185L330 182z"/>
<path style="fill:#e6cede; stroke:none;" d="M332 182L332 187L333 187L332 182M281 183L281 186L282 186L281 183z"/>
<path style="fill:#6ac4af; stroke:none;" d="M324.333 184.667L324.667 185.333L324.333 184.667z"/>
<path style="fill:#e6cede; stroke:none;" d="M358 184L361 211L362 211L359 185L406 195.576L421.883 200.433L421.424 210L418 235L423.08 208L422.971 198.742L406 194.199L358 184z"/>
<path style="fill:#7a4f8b; stroke:none;" d="M284 185L285 186L284 185z"/>
<path style="fill:#e6cede; stroke:none;" d="M291 185L284 189L284 190C287.553 189.884 291.937 189.458 291 185M330 185L331 186L330 185z"/>
<path style="fill:#6ac4af; stroke:none;" d="M359 185C359.348 201.861 362.1 222.876 367 239C376.669 235.708 385.776 229.095 389 219C389.935 233.578 375.706 235.601 369.028 244.698C367.023 247.429 368.427 251.988 368.92 255C370.353 263.754 369.424 279.223 374.317 286.682C376.012 289.266 379.278 288.98 382 288.999C387.785 289.039 405.35 291.877 408.987 286.682C412.135 282.185 411.737 273.31 412.59 268C415.158 252.01 417.458 235.982 420.08 220C420.779 215.743 425.063 202.273 421.393 199.164C417.785 196.109 409.517 196.186 405 195.116C389.741 191.5 374.358 188.168 359 185z"/>
<path style="fill:#e6cede; stroke:none;" d="M282.333 186.667L282.667 187.333L282.333 186.667z"/>
<path style="fill:#6ac4af; stroke:none;" d="M284 186L285 187L284 186z"/>
<path style="fill:#e6cede; stroke:none;" d="M289 186L290 187L289 186M324 186L325 187L324 186z"/>
<path style="fill:#7a4f8b; stroke:none;" d="M325 186L326 187L325 186M329 186L330 187L329 186z"/>
<path style="fill:#e6cede; stroke:none;" d="M285 187L286 188L285 187z"/>
<path style="fill:#6ac4af; stroke:none;" d="M286.667 187.333L287.333 187.667L286.667 187.333z"/>
<path style="fill:#e6cede; stroke:none;" d="M288 187L289 188L288 187M323 187L323 189L325 189L323 187z"/>
<path style="fill:#6ac4af; stroke:none;" d="M326.667 187.333L327.333 187.667L326.667 187.333z"/>
<path style="fill:#e6cede; stroke:none;" d="M328 187L329 188L328 187M331 187L332 188L331 187M283 188L284 189L283 188M330 188L331 189L330 188M325 189L325 190L330 190L325 189M260 196L260 203L261 203L260 196M254 198L255 202L256 202L254 198M188 209L188 242L189 242L189 210L253 200L233 201.565L188 209z"/>
<path style="fill:#7a4f8b; stroke:none;" d="M189 210L190 288L229 289L243.012 287.258L245.424 276L249 248C233.266 244.122 224.135 236.754 219 221L220 221C225.759 233.121 236.41 241.408 250 242L255 199L189 210z"/>
<path style="fill:#6ac4af; stroke:none;" d="M234 202L235 203L234 202z"/>
<path style="fill:#e6cede; stroke:none;" d="M254 204L254 210L255 210L254 204M259 204L259 211L260 211L259 204z"/>
<path style="fill:#6ac4af; stroke:none;" d="M216 205L217 206L216 205M203 207L204 208L203 207z"/>
<path style="fill:#e6cede; stroke:none;" d="M356 210L356 216L357 216L356 210M258 211L258 218L259 218L258 211M253 212L253 218L254 218L253 212M362 212L362 218L363 218L362 212M357 216L357 222L358 222L357 216M257 218L257 226L258 226L257 218M363 218L363 225L364 225L363 218M389 219L379 233L386 231L389 219M252 220L252 226L253 226L252 220M219 221L221 229L222 229L219 221M358 223L358 229L359 229L358 223M364 225L364 231L365 231L364 225z"/>
<path style="fill:#010101; stroke:none;" d="M386 226L385 229L386 226z"/>
<path style="fill:#e6cede; stroke:none;" d="M223 227L224 228L223 227z"/>
<path style="fill:#6ac4af; stroke:none;" d="M251 227L252 228L251 227z"/>
<path style="fill:#e6cede; stroke:none;" d="M256 227L256 233L257 233L256 227M224 228L226 231L224 228M251 228L251 234L252 234L251 228M222.333 229.667L222.667 230.333L222.333 229.667M359 229L359 235L360 235L359 229M223.333 231.667L223.667 232.333L223.333 231.667M226 231L227 232L226 231M365 231L365 237L366 237L365 231M384.333 231.667L384.667 232.333L384.333 231.667M227 232L228 233L227 232M224 233L225 234L224 233M228 233L229 234L228 233M378 233L379 234L378 233M383 233L384 234L383 233M225 234L226 235L225 234M229 234L230 235L229 234M377 234L378 235L377 234M382 234L383 235L382 234z"/>
<path style="fill:#6ac4af; stroke:none;" d="M225 235L226 236L225 235z"/>
<path style="fill:#e6cede; stroke:none;" d="M230 235L231 236L230 235z"/>
<path style="fill:#6ac4af; stroke:none;" d="M231 235L232 236L231 235z"/>
<path style="fill:#e6cede; stroke:none;" d="M255 235L255 241L256 241L255 235M375 235L376 236L375 235M381 235L382 236L381 235M226 236L227 237L226 236M232 236L233 237L232 236M250 236L250 242L251 242L250 236M279 236C280.257 248.525 290.643 259.148 303 261L303 260C297.348 259.058 290.887 255.751 287 251C285.03 248.592 279.659 241.915 284 243L279 236M337 236C332.511 244.053 326.54 250.315 318 254L318 255L335 243L332 249L335 241C337.847 240.609 338.093 238.519 337 236M360 236L360 242L361 242L360 236M373.667 236.333L374.333 236.667L373.667 236.333M380 236L381 237L380 236M417 236L417 243L418 243L417 236M227 237L228 238L227 237M233 237L234 238L233 237z"/>
<path style="fill:#6ac4af; stroke:none;" d="M234 237L235 238L234 237z"/>
<path style="fill:#e6cede; stroke:none;" d="M371.667 237.333L372.333 237.667L371.667 237.333M379 237L380 238L379 237M228 238L229 239L228 238M235 238L236 239L235 238M366 238L366 240L368 240L366 238M368 238L368 239L371 239L368 238M378 238L379 239L378 238M229 239L230 240L229 239M236.667 239.333L237.333 239.667L236.667 239.333M376.667 239.333L377.333 239.667L376.667 239.333M230 240L231 241L230 240M239.667 240.333L240.333 240.667L239.667 240.333M375 240L376 241L375 240M231.667 241.333L232.333 241.667L231.667 241.333M242 241L242 242L245 242L242 241z"/>
<path style="fill:#010101; stroke:none;" d="M281 241L282 242L281 241M335.333 241.667L335.667 242.333L335.333 241.667z"/>
<path style="fill:#e6cede; stroke:none;" d="M373.667 241.333L374.333 241.667L373.667 241.333M233 242L234 243L233 242M247 242L247 243L250 243L247 242M254 242L254 249L255 249L254 242z"/>
<path style="fill:#010101; stroke:none;" d="M282 242C287.927 267.001 327.499 266.491 335 243C330.5 246.167 326.86 250.408 322 253.095C305.795 262.053 293.978 252.359 282 242z"/>
<path style="fill:#e6cede; stroke:none;" d="M361 242L361 248L362 248L361 242M371.667 242.333L372.333 242.667L371.667 242.333M235 243L236 244L235 243M368.667 243.333L369.333 243.667L368.667 243.333M416 243L414 262L415 262L416 243M236.667 244.333L237.333 244.667L236.667 244.333M284 244L285 245L284 244M367 244L367 251L368 251L367 244M238 245L238 246L241 246L238 245M285 245L286 246L285 245M241 246L241 247L245 247L241 246M286 246L287 247L286 246M247 247L247 248L250 249L247 247M287 247L288 248L287 247z"/>
<path style="fill:#6ac4af; stroke:none;" d="M189 248L189 251L190 251L189 248z"/>
<path style="fill:#e6cede; stroke:none;" d="M288 248L289 249L288 248M289 249L292 251L289 249M362 249L362 255L363 255L362 249M253 250L253 257L254 257L253 250M331 250L332 251L331 250M189 251L189 287L190 287C190 276.613 193.011 260.56 189 251z"/>
<path style="fill:#6ac4af; stroke:none;" d="M248 251L249 252L248 251z"/>
<path style="fill:#e6cede; stroke:none;" d="M292.667 251.333L293.333 251.667L292.667 251.333M330 251L331 252L330 251M248 252L248 258L249 258L248 252M294 252L295 253L294 252M329 252L330 253L329 252M368 252L368 258L369 258L368 252M295.667 253.333L296.333 253.667L295.667 253.333M328 253L329 254L328 253M297 254L297 255L300 255L297 254M327 254L328 255L327 254M300 255L300 256L304 256L300 255M314 255L314 256L317 256L314 255M325.667 255.333L326.333 255.667L325.667 255.333M363 255L363 261L364 261L363 255M305 256L305 257L314 257L305 256M324 256L325 257L324 256M252 257L252 264L253 264L252 257M322.667 257.333L323.333 257.667L322.667 257.333M320.667 258.333L321.333 258.667L320.667 258.333M369 258L369 265L370 265L369 258M247 259L247 266L248 266L247 259M317 259L317 260L320 260L317 259M314 260L314 261L317 261L314 260M305 261L305 262L313 262L305 261M364 262L364 268L365 268L364 262M413 262L412 275L413 275L413 262M370 265L370 272L371 272L370 265M251 266L251 272L252 272L251 266z"/>
<path style="fill:#6ac4af; stroke:none;" d="M246 267L247 268L246 267z"/>
<path style="fill:#e6cede; stroke:none;" d="M246 268L246 274L247 274L246 268M365 268L365 275L366 275L365 268M371 272L371 277L372 277L371 272M250 273L250 280L251 280L250 273z"/>
<path style="fill:#6ac4af; stroke:none;" d="M245 275L246 276L245 275z"/>
<path style="fill:#e6cede; stroke:none;" d="M366 275L366 281L367 281L366 275M411 275L410 287L411 287L411 275M245 276L245 282L246 282L245 276M372 279C372.049 284.824 372.321 289.481 379 290L379 289C373.655 287.392 374.004 283.453 372 279M249 280L249 287L250 287L249 280M367 281L367 288L268 288L268 289L368 289L367 281z"/>
<path style="fill:#6ac4af; stroke:none;" d="M244 283L245 284L244 283z"/>
<path style="fill:#e6cede; stroke:none;" d="M244 284L244 289L245 289L244 284M409 287L408 289L410 289L409 287M190 288L191 289L190 288z"/>
<path style="fill:#6ac4af; stroke:none;" d="M191.667 288.333L192.333 288.667L191.667 288.333M242.667 288.333L243.333 288.667L242.667 288.333z"/>
<path style="fill:#e6cede; stroke:none;" d="M248.667 288.333L249.333 288.667L248.667 288.333M260 289L261 290L260 289M382 289L382 290L408 290L382 289z"/>
</svg>
